<svg width="32" height="32" fill="none" xmlns="http://www.w3.org/2000/svg"><path d="M2.667 18.15v-1.548h2.05c.226-1.004.367-1.948.655-2.848 1.192-3.711 3.707-6.136 7.394-7.318.92-.296 1.86-.406 1.434-1.77h3.66c-.45 1.424.565 1.456 1.455 1.764 4.417 1.523 7.024 4.607 7.772 9.238.045.28.095.559.156.926h2.09v1.554H2.667v.002Zm22.85-1.608c.18-4.718-4.61-9.172-9.652-9.049-5.03.123-9.706 4.638-9.303 9.05h18.954ZM27.272 24.513c-1.004.927-2.075 1.919-3.13 2.892-.118-.048-.195-.056-.231-.098-1.477-1.783-3.421-2.183-5.598-1.887-3.332.452-6.101-.548-8.3-3.13-.516-.604-1.243-1.027-1.743-1.64-.227-.28-.137-.817-.189-1.237.402.018.916-.119 1.187.077a17.087 17.087 0 0 1 2.305 2.023c.987 1.042 2.206 1.354 3.558 1.375.64.01 1.282.025 1.92-.014.562-.032 1.445.237 1.447-.644 0-.936-.912-.669-1.502-.694-.894-.038-1.792-.015-2.688-.008-.53.004-.998-.113-1.027-.738-.03-.692.456-.827 1.03-.827 2.337.004 4.677-.067 7.01.039.817.036 1.784.305 2.384.817 1.275 1.09 2.354 2.41 3.569 3.692l-.002.002Z" fill="#FDBA74"/></svg>