<svg width="32" height="32" fill="none" xmlns="http://www.w3.org/2000/svg"><path d="M25.566 29.331H5.542v-1.124c0-5.153-.012-10.306.017-15.462.004-.693-.209-1.1-.792-1.495-2.902-1.97-2.776-5.553.25-7.331 1.835-1.077 3.783-1.171 5.744-.38.551.223.957.244 1.518-.033 2.223-1.095 4.512-1.125 6.752-.053.625.299 1.093.276 1.713.035 1.937-.755 3.842-.604 5.643.462 2.975 1.763 3.068 5.514.123 7.325-.773.474-.965.971-.96 1.802.032 4.982.016 9.965.016 14.947v1.31-.003ZM7.355 26.74c-.33.967.2.988.82.986 4.946-.009 9.89-.004 14.836-.01.266 0 .532-.048.763-.069.49-1.27-.7-.781-1.126-1.163l.076-.926c.427-.051.757-.092 1.124-.138V12.376l-1.089-.093.095-1.359c1.046-.398 2.01-.604 2.796-1.097 1.852-1.163 1.782-3.301-.107-4.407-.573-.334-1.266-.538-1.928-.635-1.425-.208-2.703.233-3.768 1.17-2.52-2.036-5.479-2.218-8.285.014-1.063-.887-2.285-1.326-3.694-1.221-1.858.138-3.326 1.254-3.466 2.66-.147 1.45 1.033 2.716 2.949 3.172 1.328.315 1.348.346 1.074 1.781H7.297V25.42l1.134.186c-.016.367-.033.69-.05 1.027-.393.039-.694.07-1.028.105l.002.002Z" fill="#FDBA74"/><path d="M19.571 26.628v-1.102h1.367v1.102h-1.367ZM17.775 26.654H16.51v-1.13h1.264v1.13ZM13.327 26.63c-.019-.365-.035-.693-.054-1.104h1.417v1.104h-1.363ZM10.227 26.615V25.52h1.343v1.095h-1.343Z" fill="#FDBA74"/></svg>