<svg width="220" height="64" fill="none" xmlns="http://www.w3.org/2000/svg"><path d="M35.094 27.99c-.82.99-1.56 1.89-2.31 2.79-1.62 1.94-3.23 3.89-4.86 5.82-1.11 1.31-2.25 2.58-3.36 3.89-1.74 2.06-3.45 4.14-5.19 6.2-1.71 2.02-3.44 4.02-5.15 6.05-1.86 2.22-3.7 4.45-5.56 6.67-.8.96-1.61 1.92-2.46 2.84-1.03 1.11-2.34 1.38-3.71.87-1.33-.5-2.12-1.53-2.4-2.97-.32-1.6.19-2.81 1.34-3.93 3.61-3.5 7.17-7.07 10.76-10.6 3.43-3.39 6.88-6.76 10.32-10.14 1.27-1.25 2.55-2.5 3.82-3.75 1.92-1.88 3.83-3.76 5.77-5.62.39-.38.47-.62.04-1.06-.78-.79-1.02-1.84-1.15-2.91-.22-1.69.43-3.01 1.58-4.21 2.23-2.33 4.4-4.71 6.59-7.07 1.52-1.64 3.04-3.28 4.55-4.93 1.09-1.18 2.18-2.37 3.26-3.55.63.43.72.96.27 1.49-1.36 1.58-2.73 3.15-4.1 4.73-2.09 2.41-4.17 4.83-6.25 7.25-.31.36-.65.71-.95 1.08-.41.52-.22 1.1.42 1.25.51.12.98.05 1.38-.37 4.1-4.17 8.2-8.33 12.31-12.49.62.24.79.91.36 1.41-1.83 2.11-3.64 4.24-5.48 6.35-1.29 1.48-2.6 2.94-3.9 4.41-.61.69-1.23 1.37-1.8 2.08-.28.35-.6.75-.19 1.23.39.47.9.39 1.38.23.22-.08.42-.27.59-.45 3.71-3.74 7.41-7.48 11.11-11.23.31-.31.55-.69.88-.97.11-.1.54-.04.55 0 .07.38.25.91.07 1.13-1.15 1.43-2.4 2.78-3.6 4.17-1.23 1.42-2.43 2.86-3.66 4.28-.97 1.12-1.96 2.22-2.94 3.34-.45.52-.93 1.02-1.31 1.59-.36.53-.09 1.03.55 1.14.54.09 1.02-.01 1.43-.44 2.81-2.87 5.64-5.72 8.46-8.59 1.26-1.28 2.48-2.6 3.71-3.88.73.35.85.99.33 1.56-.53.59-1.08 1.17-1.62 1.75-1.41 1.49-2.82 2.98-4.22 4.48-2.18 2.34-4.34 4.7-6.54 7.03-.97 1.03-1.9 2.13-3 2.99-1.56 1.22-3.98.94-5.43-.42-.2-.19-.46-.33-.69-.48v-.04Z" fill="#FDBA74"/><path d="M1.694 12.01c1.64 1.3 3.13 2.8 5.01 3.82-.48-1.58-1.8-2.63-2.46-4.08.05-.04.11-.08.16-.12 1 1.34 1.94 2.73 3.01 4.01 1.11 1.32 2.36 2.53 3.52 3.81 1.13 1.25 2.24 2.53 3.35 3.8.1-.06.19-.12.29-.17-.18-.5-.34-1.02-.56-1.51-.62-1.39-1.24-2.79-1.93-4.14-.38-.74-.89-1.43-1.39-2.11-.72-.97-1.44-1.95-2.23-2.86-1.44-1.65-3.21-2.81-5.34-3.41-.57-.16-1.07-.55-1.6-.84l.1-.22c.93.26 1.86.52 2.8.78.04-.06.08-.12.13-.19-.16-.19-.3-.42-.49-.58-.7-.58-1.42-1.14-2.12-1.72-.17-.14-.28-.36-.42-.54.04-.05.07-.1.11-.15l1.41.75.14-.09-.93-1.89c2.83 3.11 5.17 6.64 8.16 9.6.06-.03.11-.06.17-.09-.37-.93-.72-1.86-1.11-2.78-.41-.97-.82-1.95-1.32-2.87-.33-.6-.76-1.16-1.24-1.66-1.52-1.57-3.09-3.1-4.62-4.66-.25-.25-.45-.55-.58-.92.7.6 1.41 1.19 2.09 1.81.53.48 1 1.02 1.52 1.51.14.13.37.16.55.24 0-.22.06-.46-.03-.64-.62-1.29-1.28-2.57-1.83-3.9 1.1 1.65 2.2 3.3 3.31 4.95.04.05.2.02.45.04-.22-1.25-.43-2.44-.65-3.62.07-.02.14-.03.2-.05.51 3.86 1.58 7.53 3.67 10.81.1-.02.2-.04.29-.07-.21-2.38-.43-4.77-.64-7.15.06-.01.13-.03.19-.04.21.53.43 1.05.64 1.58h.27c.2-1.01.41-2.02.61-3.03.09 0 .19.02.28.03.11 2.43-.48 4.83-.49 7.29.94-.97 1.09-2.4 1.94-3.41l.21.09c-.18.5-.39 1-.54 1.51-.45 1.53-.98 3.04-1.29 4.6-.38 1.89.42 3.57 1.21 5.23.68 1.43 1.24 2.91 1.91 4.33.69 1.46 1.45 2.89 2.2 4.33.06.12.25.16.38.24.05-.13.16-.27.14-.39-.16-.78-.34-1.55-.53-2.32-.54-2.2-1.1-4.39-1.63-6.59-.12-.5-.14-1.02-.2-1.54.06-.02.12-.04.18-.07.23.55.44 1.11.68 1.66.08.17.24.31.36.47.08-.17.2-.33.23-.51.15-.9.28-1.81.54-2.71.05 1.18.1 2.37.14 3.55 0 .17-.03.36.02.52.05.14.2.25.31.37.1-.12.24-.22.29-.35.25-.6.48-1.21.73-1.8.08-.19.23-.35.5-.47-.05.25-.07.51-.15.76-.6 2.1-1.34 4.19-1.17 6.41.12 1.48.49 2.94.66 4.42.23 1.97 1.43 3.46 2.43 5.03 1.27 1.98 2.7 3.86 4.07 5.79.1-.05.2-.11.3-.16-1.4-3.49-2.81-6.99-4.21-10.48.07-.03.14-.07.2-.1.44.76.88 1.52 1.32 2.29.32-1.86-.46-3.67.05-5.47l.2-.03c.23 1.26.46 2.52.72 3.93.92-.81.49-2 1.33-2.73.02.33.09.66.04.98-.26 1.68-.57 3.36-.83 5.05-.05.31.04.65.13.96.75 2.75 1.71 5.42 3.37 7.76.79 1.12 1.71 2.15 2.6 3.19.65.76 1.34 1.49 2.02 2.22.13.13.3.23.45.34.05-.03.1-.07.15-.1-.28-.57-.51-1.16-.84-1.71-1.11-1.88-2.25-3.73-3.37-5.6-.42-.7-.85-1.41-.78-2.28.07-.04.13-.08.2-.12.55.9 1.11 1.79 1.66 2.69.05-.02.11-.03.16-.05-.34-1.34-.68-2.68-1.03-4.01.07-.02.14-.04.2-.06.28.9.56 1.8.84 2.71.04.14.05.32.14.43.1.13.27.22.41.32.07-.17.2-.34.19-.5-.02-.98-.08-1.96-.1-2.93 0-.22.08-.45.13-.68l.18-.02c.12.68.34 1.36.35 2.05.06 2.46.49 4.86 1.22 7.2.15.47.41.91.68 1.32 1.07 1.62 2.03 3.35 3.29 4.81 1.12 1.29 2.58 2.3 3.93 3.39.81.65 1.69 1.22 2.58 1.77-2.55-3.26-5.28-6.36-7.55-9.82l.15-.12 2.44 2.86c.07-.04.13-.09.2-.13-.57-1.38-1.13-2.76-1.7-4.15.02-.01.05-.02.07-.04.46.91.86 1.86 1.39 2.73.51.84.73 1.91 1.61 2.49.07-.03.14-.06.22-.09-.21-1.39-.43-2.79-.64-4.18l.27-.06c.21.74.46 1.48.63 2.23.23.98.46 1.97.59 2.97.25 2 1.47 3.42 2.75 4.81 1.01 1.09 2.03 2.2 3.17 3.14 1.2.98 2.51 1.84 3.84 2.64 1.4.85 2.87 1.58 4.28 2.44-.93-.45-1.87-.86-2.78-1.35-1.23-.66-2.43-1.4-3.66-2.08-1.92-1.05-3.85-2.07-5.78-3.11-1.58-.85-3.28-1.16-5.05-1.23-1.5-.06-2.99-.16-4.49-.27-.22-.02-.44-.16-.66-.24v-.23h3.33c.02-.11.04-.21.07-.32-.17-.09-.33-.2-.52-.26-1.37-.44-2.75-.87-4.12-1.31-.04-.01-.06-.06-.12-.11 1.23-.51 2.32.56 3.5.32l.11-.2-4.16-2.54c3.81 1.07 6.87 3.77 10.61 5l.17-.23c-.44-.43-.86-.9-1.33-1.3-.76-.64-1.52-1.29-2.35-1.82-1.63-1.05-3.29-2.06-4.96-3.04-.91-.54-1.84-1.08-2.82-1.46-.95-.37-1.98-.55-2.99-.77-1.12-.24-2.25-.42-3.36-.66-.33-.07-.64-.29-.96-.43.02-.08.04-.17.07-.25.77.05 1.55.1 2.32.14.03-.04.06-.09.09-.13-.15-.14-.27-.32-.44-.42-1.53-.91-3.07-1.79-4.6-2.7-.24-.14-.42-.38-.74-.67 1.94.04 3.01 1.61 4.6 2l.13-.16c-.64-.57-1.27-1.13-1.9-1.71-.14-.13-.23-.31-.34-.46l.21-.24c.42.25.89.44 1.27.75 1.43 1.15 2.76 2.42 4.26 3.47 1.13.8 2.45 1.33 3.68 1.98.51.27 1.01.54 1.51.82.03-.05.06-.09.1-.14-.75-.71-1.55-1.38-2.24-2.13-1.68-1.82-3.58-3.38-5.55-4.86-.82-.62-1.73-1.15-2.66-1.59-1.56-.74-3.18-1.35-4.76-2.06-.98-.44-1.93-.94-2.9-1.42.03-.06.05-.12.08-.18 1.12.32 2.23.64 3.35.97.04-.05.07-.1.11-.16l-4.35-3.66c.02-.04.04-.07.07-.11l3.48 2.23c.08-.07.15-.15.23-.22-.2-.28-.36-.6-.61-.83-.65-.62-1.33-1.2-1.9-1.91 1.19.53 2.13 1.36 2.92 2.33 1.51 1.85 3.41 3.19 5.45 4.35.03.01.08-.02.18-.05-.05-.13-.08-.28-.15-.39-1.35-1.97-2.49-4.09-4.29-5.73-1.59-1.45-3.26-2.81-5.21-3.73-1.87-.89-3.79-1.67-5.67-2.54-.56-.26-1.07-.63-1.55-1.07l1.71.33c.04-.06.07-.12.11-.18l-3.02-2.57c.04-.06.08-.11.12-.17 1.42.86 2.84 1.73 4.26 2.59.07-.07.13-.14.2-.21-.89-1.23-1.79-2.46-2.68-3.7.04-.04.09-.07.13-.11.83.94 1.68 1.85 2.47 2.81 1.42 1.73 2.81 3.45 4.87 4.51.94.48 1.73 1.26 2.6 1.89.15.11.33.16.5.24.06-.03.11-.07.17-.1-.11-.32-.16-.69-.34-.96-1.31-2.01-2.58-4.06-4-5.99-1.04-1.41-2.19-2.78-3.5-3.93-.91-.8-2.14-1.28-3.28-1.76-1.23-.51-2.56-.79-3.66-1.6-.06-.05-.12-.11-.13-.29l2.86.66c.03-.05.05-.1.08-.15l-5.25-4.95.17-.2.01-.02Z" fill="#EA580C"/><path d="M135.556 14.57c-1.573-2.257-3.847-3.494-6.507-3.778-2.308-.267-4.667-.117-6.992-.167-.033 0-.083.05-.15.1v17.366c2.693-.083 5.285-.05 7.861-.3 2.007-.201 3.814-1.053 5.236-2.591 1.221-1.304 1.873-2.858 2.024-4.597.2-2.172-.218-4.245-1.472-6.05v.017Zm-2.008 9.142c-1.187 2.273-3.194 3.443-5.753 3.577-.837.05-1.69 0-2.543 0-.652 0-1.003-.184-.987-.97.034-4.579 0-9.142 0-13.722v-.785c1.79-.435 3.496-.936 5.219-.217 2.793 1.17 4.416 3.309 4.884 6.35.318 2.023.1 3.979-.836 5.767h.016ZM98.59 17.144c-.351-3.828-3.847-7.12-7.794-6.853-3.496-.067-6.407 1.571-7.962 3.978-1.455 2.273-1.706 4.813-1.288 7.454.401 2.507 1.64 4.43 3.847 5.666 1.974 1.104 4.081 1.204 6.239.636 2.425-.636 4.483-1.789 5.77-4.062 1.222-2.123 1.406-4.413 1.171-6.82h.017ZM94.41 25.4c-2.342 3.46-7.41 2.959-9.2-.417-.836-1.588-1.188-3.06-1.188-5.6-.133-1.888.368-3.794 1.556-5.499a7.079 7.079 0 0 1 3.546-2.724c1.539-.518 4.349.635 5.436 2.173.97 1.354 1.405 2.925 1.539 4.546.234 2.674-.134 5.265-1.69 7.538V25.4ZM118.194 17.512c-.251-2.207-1.071-4.112-2.844-5.55-2.208-1.805-4.717-1.972-7.343-1.454-2.358.502-4.332 1.739-5.637 3.778-1.405 2.206-1.672 4.696-1.321 7.237.301 2.256 1.355 4.078 3.178 5.382 3.462 2.507 8.363 1.537 11.307-1.154 2.024-1.855 2.726-4.312 2.66-7.02 0-.4.033-.835 0-1.236v.017Zm-4.734 8.473c-1.204 1.421-2.793 1.956-4.617 1.689-3.596-.485-4.616-3.026-5.118-5.7-.418-2.24-.368-4.496.586-6.669.886-2.022 2.291-3.593 4.415-4.111 1.556-.402 3.145.1 4.433 1.17 1.422 1.186 2.057 2.807 2.325 4.58.117.768.15 1.537.217 2.306.017 2.507-.602 4.797-2.241 6.735ZM75.842 20.754h2.191c.034.2.084.401.084.602v5.532c0 .384-.067.618-.485.735-3.998 1.087-7.878 1.204-11.441-1.32-1.94-1.37-2.91-3.326-3.128-5.633-.25-2.69.452-5.164 2.308-7.17 1.472-1.588 3.346-2.607 5.47-3.042 1.907-.384 3.814-.267 5.704.2 1.237.302 1.22.318.886 1.588-1.488-.367-2.977-.735-4.466-1.12-1.706-.45-3.11.251-4.365 1.254-2.141 1.722-3.028 4.011-3.011 6.753 0 2.089.217 4.061 1.522 5.8 1.12 1.52 2.626 2.406 4.466 2.64 1.137.134 2.308 0 3.48.034.685 0 .819-.335.802-.92-.033-1.688 0-3.376 0-5.064v-.852l-.017-.017ZM208.5 27.958V10.642h10.353c-.067.434-.133.819-.2 1.304-1.188-.184-2.342-.301-3.463-.569-1.338-.317-2.609-.167-3.914.1-.435.084-.568.352-.552.786.017 1.872.017 3.744 0 5.616 0 .518.201.669.686.669 1.556-.017 3.128 0 4.683 0 .452 0 .72.1.502.718h-4.867c-.658 0-.993.34-1.004 1.02v6.234c0 .284.017.552.034.886 2.76-.267 5.453-.518 8.246-.802-.084.535-.134.936-.201 1.37h-10.32l.017-.016ZM167.988 9.99c-2.676 6.1-5.269 12.017-7.844 17.934.769.268 1.07-.05 1.254-.585.485-1.22.953-2.457 1.489-3.643.117-.235.485-.485.736-.485 2.425-.034 4.834-.034 7.259 0 .217 0 .552.234.652.451.552 1.204 1.021 2.424 1.556 3.644.117.267.368.668.602.702.686.083 1.372.017 2.225.017a6129.433 6129.433 0 0 1-7.912-18.018l-.017-.017Zm-4.499 12.402c1.254-2.992 2.442-5.883 3.646-8.758h.234c1.171 2.875 2.359 5.783 3.58 8.758h-7.46ZM178.576 26.687c1.154.318 2.275.652 3.429.953 1.087.267 2.158.1 3.195-.284 1.204-.451 1.84-1.387 2.04-2.607.218-1.388-.184-2.608-1.371-3.41-1.556-1.053-3.228-1.922-4.784-2.992-1.907-1.304-2.96-3.075-2.174-5.048.719-1.838 2.208-2.824 4.181-2.991 1.857-.168 3.663.15 5.487.735l-.201 1.304c-1.288-.385-2.492-.752-3.713-1.07a10.49 10.49 0 0 0-1.907-.267c-1.004-.05-1.69.534-1.924 1.52-.435 1.789.335 3.11 1.69 4.095 1.438 1.037 3.027 1.872 4.516 2.842 1.02.669 1.89 1.504 2.392 2.658.585 1.32.234 3.108-.72 4.195-1.806 2.039-4.131 2.172-6.556 1.888-1.037-.117-2.058-.484-3.078-.735-.452-.117-.652-.368-.452-.802l-.05.016ZM153.47 27.974h-2.258V11.628c-1.907-.802-3.613.2-5.47.351-.067-.435-.117-.852-.184-1.337h13.532c-.05.434-.084.852-.151 1.387-1.02-.217-1.957-.418-2.91-.635a3.695 3.695 0 0 0-.619-.1c-1.823-.1-1.957.05-1.957 1.838V27.958l.017.016ZM197.544 27.958v-.953c0-4.864-.017-9.71.017-14.575 0-.869-.385-1.136-1.071-1.07-1.204.118-2.392.318-3.596.502-.268.033-.552.117-.887.184v-1.387h13.348c-.033.434-.067.852-.1 1.387-.97-.2-1.89-.401-2.827-.602-.184-.033-.351-.1-.535-.117-1.84-.167-2.091.067-2.091 1.855v14.776h-2.275.017ZM157.601 45.49c-1.02 1.104-1.974 2.257-3.078 3.243-.368.318-1.17.401-1.639.268-.318-.1-.502-.836-.602-1.304-.067-.384.05-.819.117-1.22.084-.602.251-1.12.786-1.588.686-.602 1.221-1.404 1.74-2.156.117-.167 0-.502-.017-.769-.251.067-.569.05-.702.2-.452.469-.971.937-1.171 1.522-.402 1.203-1.221 1.938-2.258 2.507-.268.15-.485.384-.736.551-.602.435-1.221.853-1.84 1.287-.067-.05-.117-.1-.201-.15.167-1.32.318-2.658.502-4.162-.268.234-.402.318-.485.418-.552.819-1.054 1.638-1.639 2.44-.168.25-.502.385-.92.685-.05-1.37.267-2.406.752-3.376.686-1.387 1.088-1.571 2.509-1.253-.669-.686-1.17-.77-1.739-.117-.586.685-1.021 1.52-1.506 2.306-.685 1.087-1.221 2.273-2.007 3.276-.719.936-1.472.702-1.84-.401a8.104 8.104 0 0 1-.167-.685c-.117-.702-.217-1.404-.351-2.257-.954 1.103-1.506 2.273-2.66 3.026-.111-.691.062-1.61.519-2.758.569-1.404 1.254-1.722 2.609-1.17-.686-.886-1.522-.903-2.174-.05-.318.434-.569.919-.853 1.387-1.138 1.855-2.258 3.744-3.463 5.582-.2.318-.685.435-1.053.636-.067-.352-.201-.72-.218-1.07a2.49 2.49 0 0 1 .1-.853c.335-1.404.686-2.79 1.021-4.195.1-.418.134-.869.217-1.287-.401.167-.836.334-1.221.535-.502.267-.97.669-1.706.318.201-.385.385-.702.535-1.053.318-.736.636-1.471.904-2.207.066-.167-.017-.518-.168-.601-.134-.084-.451 0-.602.117-.385.317-.786.635-1.037 1.036-.502.769-.903 1.571-.418 2.54.067.15-.117.418-.167.636 1.12-.168 2.241-.335 3.445-.519-.05.285-.117.636-.184.97-.351 1.504-.736 3.008-1.053 4.513-.118.535-.118 1.22.485 1.404.284.083.869-.285 1.12-.602.786-.953 1.489-1.972 2.208-2.975.218-.318.402-.602.837-.218.117.1.551.017.702-.116.552-.552 1.037-1.154 1.556-1.739.1-.1.267-.15.401-.217.268.836.418 1.638.736 2.357.385.852 1.02.97 1.723.35.568-.517 1.07-1.12 1.622-1.687.636.768.72.785 1.389.083.284-.3.518-.652.786-.97.167-.217.401-.4.719-.701.017 1.905-.134 3.41-1.589 4.68-2.175 1.888-3.78 4.228-4.834 6.92-.602 1.554-1.087 3.192-.552 4.83.452 1.404 1.255 1.738 2.308.685.536-.552.97-1.22 1.322-1.889 1.706-3.31 2.442-6.936 3.111-10.58.15-.752.284-1.42 1.02-1.855.552-.318 1.02-.819 1.539-1.17.569-.401 1.171-.735 1.89-1.187 0 .886-.117 1.555.017 2.173.134.535.451 1.17.87 1.404.384.2 1.154.05 1.555-.234.887-.652 1.689-1.454 2.442-2.256.502-.518.887-1.154 1.305-1.739-.285.067-.418.234-.569.402v.05Zm-24.22-3.96c-.451 1.002-.92 2.005-1.438 3.142-.602-1.103.117-2.741 1.438-3.142Zm13.314 10.83c-.585 2.741-1.271 5.482-2.542 8.023-.335.685-.836 1.304-1.355 1.855-.635.685-1.288.569-1.555-.35-.218-.686-.318-1.488-.235-2.207.352-2.892 1.79-5.315 3.63-7.505.719-.886 1.522-1.688 2.275-2.507.084.017.167.067.268.084-.168.869-.318 1.738-.502 2.607h.016Zm-16.458-5.566c-.686.736-1.405 1.455-2.208 2.073-.653.501-1.639.334-1.907-.217-.502-1.053-.167-2.825.619-3.694a25.505 25.505 0 0 0 1.79-2.223c.133-.2 0-.585-.017-1.003-1.255.752-1.589 1.22-2.308 2.975-.352.886-1.255 1.454-2.359 1.438-.987 0-1.405-.351-1.806-1.471-.067-.167-.168-.318-.301-.635-.101.317-.168.45-.184.585-.502 2.122-1.389 4.061-2.978 5.599-.217.217-.585.267-.886.384-.084-.284-.301-.585-.251-.835.217-1.455.502-2.875.803-4.313.117-.551.284-1.07.468-1.721-.636.952-1.121 1.822-1.739 2.574-.736.886-1.556 1.738-2.459 2.457-.402.317-1.171.4-1.656.234-.318-.117-.519-.836-.552-1.304-.1-1.17.251-2.206 1.171-3.059.552-.484.987-1.12 1.388-1.738.151-.217.017-.602.017-.92-.268.084-.619.101-.753.268-.502.619-1.087 1.237-1.305 1.972-.501 1.622-1.455 2.842-2.793 3.778-.502.35-1.037.635-1.555.97-.051-.068-.118-.135-.168-.201.117-.218.234-.435.318-.669.251-.735.552-1.454.669-2.206.084-.685-.401-.97-.97-.535-.552.451-1.004 1.02-1.455 1.571-.368.435-.669.936-1.054 1.454-.067-.184-.1-.234-.084-.267.502-2.357.904-4.714 1.539-7.02.351-1.27 1.087-2.424 1.623-3.66a80.573 80.573 0 0 0 1.572-3.945c.167-.435.401-.97-.184-1.354-.736.619-1.372 1.504-1.823 3.31-1.355 5.432-2.593 10.88-3.881 16.313 0 .066.067.167.184.417.168-.468.234-.802.385-1.07.117-.2.318-.384.502-.5 1.405-.736 2.86-1.405 4.248-2.174.686-.4 1.271-.969 2.074-1.604.034.568.051.869.067 1.17.084 1.354 1.221 1.989 2.359 1.253.619-.4 1.12-.986 1.672-1.504.452-.401.887-.802 1.305-1.203.117.4.067.668.017.936-.117.702-.318 1.42-.318 2.14 0 .417.201.918.485 1.22.117.116.719-.168 1.07-.335.218-.117.385-.334.552-.518 1.071-1.187 1.79-2.59 2.325-4.078.168-.485.419-.585.787-.184.869.919 1.438 1.036 2.609.568.234-.084.502-.117.803-.2-.034.685-.101 1.236-.067 1.788.017 1.17 1.305 2.356 2.475 1.253 1.071-1.002 2.074-2.055 3.078-3.125.117-.117.033-.401.067-.602-.335.485-.619 1.003-1.004 1.404l-.016-.017Zm-20.239-13.856c.1.05.2.084.301.134-.552 1.387-1.121 2.775-1.673 4.162-.084-.017-.167-.067-.268-.1.268-1.505.837-2.875 1.64-4.196Zm-4.182 17.182c-.084-1.27 2.024-4.395 3.061-4.479.167 1.805-1.271 3.878-3.061 4.48ZM88.354 34.008a2.75 2.75 0 0 1-.385-.033c-1.873 3.108-2.342 6.719-3.362 10.229-.218-.15-.418-.2-.502-.335-.351-.635-.87-.635-1.355-.233-.468.384-.903.835-1.304 1.303-.72.836-1.522 1.538-2.643 1.755-.653.134-.803-.067-.82-.735a5.25 5.25 0 0 0-.318-1.755c-.167-.435-.585-.452-.936-.117-.636.568-1.221 1.186-1.89 1.688-.486.35-1.037.668-1.59.852-.819.284-.886.167-.92-.652-.016-.534-.066-1.086-.233-1.587-.218-.636-.603-.669-1.105-.218-.183.167-.4.318-.602.468-1.187.853-1.388 2.574-.317 3.36.25.2.953.25 1.07.067.652-.836 1.522-1.12 2.509-1.254.218-.033.418-.2.636-.3.217-.101.418-.218.685-.352.05.351.05.602.1.82.235 1.086 1.272 1.687 1.908 1.019.685-.752 1.438-1.053 2.358-1.17.218-.034.402-.217.619-.318.184-.067.401-.1.552-.133.05.735.017 1.37.167 1.972.134.585.703.719 1.154.3.368-.35.686-.752 1.02-1.153.385-.484.737-.969 1.121-1.47.067.016.117.066.184.1-.318 3.493-1.355 6.936-1.12 10.496.267-.167.468-.4.451-.601-.017-.502-.267-1.02-.217-1.521.318-2.357.669-4.697 1.087-7.037.284-1.605.552-3.21 1.221-4.764 1.054-2.456 1.84-5.03 2.71-7.554.117-.351.016-.786.016-1.17l.05.033Zm-16.76 13.12c-.268.268-.569.586-.92.703-.168.05-.552-.218-.703-.435-.385-.585-.117-1.688.368-2.14.402.502.77.97 1.12 1.438.084.117.168.385.118.435h.017Zm.117-.768c-.218-.318-.535-.619-.602-.97-.067-.367.133-.785.217-1.186.15 0 .301.033.435.05.084.652.167 1.304.268 1.955-.1.05-.218.1-.318.15Zm4.215 1.404c-.653-.435-.619-1.555.084-2.557.451.601.886 1.203 1.354 1.855-.518.802-.97 1.02-1.455.702h.017Zm1.204-3.51c.084 0 .184-.017.268-.017.083.652.167 1.304.25 2.023-1.07-.468-1.22-1.22-.518-1.99v-.016Zm6.406 1.638c-.535.719-1.02 1.47-1.589 2.173-.167.217-.501.267-.752.4-.117-.267-.234-.55-.318-.701.217-1.555.669-2.842 1.873-3.71.686-.502.887-.352 1.104.45.15.586 0 .97-.318 1.405v-.017Zm2.743-5.416s-.15-.05-.217-.066c.284-1.789.937-3.494 1.606-5.165.1.017.2.05.3.067-.551 1.721-1.12 3.46-1.689 5.165Zm-18.432 1.137c.652-1.588 1.271-3.21 1.89-4.814.067-.167-.1-.4-.15-.601-.218.083-.519.117-.653.267a2.92 2.92 0 0 0-.569.986c-.652 2.073-1.304 4.129-1.89 6.218-.167.635-.451.986-1.154.936-.3-.017-.602.067-.886.117v.217c.502.017 1.003.034 1.539.067 0 .267.033.468 0 .652-.268 1.22-.603 2.407-.837 3.61-.736 3.644-1.422 7.287-2.124 10.931-.033.217.034.435.067.652.067 0 .15 0 .217.017.084-.268.235-.502.268-.753.1-.885.033-1.788.217-2.657.837-4.028 1.74-8.056 2.593-12.101.084-.401.234-.552.652-.568.653-.05 1.305-.2 1.974-.301 0-.084-.017-.167-.033-.25-.72.066-1.456.116-2.325.183.133-.535.167-.936.35-1.287.252-.551.653-1.003.887-1.554l-.033.033Zm1.12-4.73c.101.033.218.067.318.117-.167 1.387-.853 2.574-1.405 3.828a1.786 1.786 0 0 1-.317-.117c.468-1.27.936-2.541 1.405-3.828Zm30.36 9.026c-.068-.117-.335-.117-.52-.168-.05.067-.1.117-.133.201.635.267.401.669.15.936-.384.401-.836.752-1.288 1.103-.368.284-.685.217-.802-.267-.151-.619-.218-1.27-.368-1.889-.268-1.036.016-1.855.685-2.691.536-.669.887-1.504 1.171-2.323.117-.318-.2-.77-.318-1.17-.35.167-.769.234-1.02.485-.853.785-.886 1.888-.903 2.958-.017.836-.251 1.504-.887 2.123-.886.869-1.689 1.821-2.458 2.79-.218.268-.318.853-.168 1.137.15.268.703.519 1.037.485a13.797 13.797 0 0 0 2.61-.618c.502-.167.77-.134 1.003.35.184.385.469.72.703 1.07a.602.602 0 0 0 .167-.117c-.167-.284-.318-.585-.502-.852-.418-.602-.351-.97.335-1.404.602-.368 1.037-.986 1.505-1.538.1-.117.067-.451 0-.618v.017Zm-1.54-5.884c.301 1.388-.602 2.257-1.355 3.46-.217-1.872.335-3.192 1.355-3.46Zm-1.639 8.558c-.786.267-1.555.501-2.358.668-.285.067-.87-.066-.887-.183-.067-.318-.017-.786.167-1.037.787-1.02 1.656-1.955 2.643-3.092.285 1.237.519 2.206.703 3.176.017.133-.134.434-.268.468Z" fill="#FDBA74"/></svg>