<svg width="32" height="32" fill="none" xmlns="http://www.w3.org/2000/svg"><path d="M15.995 29.296c-3.43 0-6.858.006-10.287-.002-1.996-.004-3.017-1.04-3.02-3.063-.013-6.824-.02-13.647-.021-20.471 0-2.021 1.01-3.079 3.013-3.083 6.892-.014 13.785-.014 20.675.004 1.971.004 2.978 1.035 2.978 2.986.002 6.858-.004 13.715-.017 20.575-.004 2.008-1.02 3.037-3.035 3.048-3.429.016-6.858.004-10.286.004v.002Zm.848-4.684-.233-.124c0 .747.04 1.497-.01 2.242-.048.714.203.95.928.942 2.88-.035 5.758-.008 8.638-.016 1.162-.002 1.488-.303 1.49-1.451.01-6.82.01-13.643 0-20.464 0-1.123-.288-1.389-1.42-1.39-2.983-.011-5.965-.005-8.947 0-.193 0-.387.049-.6.075V7.26l1.113.916a1448 1448 0 0 1-1.124 1.11v3.062l1.134 1.047-1.155.988v3.102l1.153 1.109-1.114.953v3.2c.503.418.803.671 1.106.922l-.957.94-.002.003Zm-1.71-6.915.232.06v-3.34c-.51-.452-.832-.736-1.153-1.018l1.165-.996v-3.21l-1.17-.879 1.148-1.111V4.41c-.396-.023-.731-.06-1.065-.06-2.776-.004-5.552-.006-8.328-.002-1.348 0-1.567.208-1.567 1.546.002 6.752.013 13.507.025 20.26.002 1.242.237 1.473 1.527 1.481 2.262.016 4.526.01 6.788.014 2.023.003 2.898-.974 2.624-2.932l-1.155-1.01c.36-.287.72-.575 1.153-.917v-3.155c-.53-.483-.84-.767-1.149-1.051l.924-.885v-.002Z" fill="#FDBA74"/><path d="M25.82 13.984v.918h-6.734c-.019-.274-.04-.556-.064-.918h6.798ZM18.814 6.871c2.41 0 4.45-.02 6.49.031.22.006.427.426.641.653-.06.096-.117.193-.177.29-2.072 0-4.145.02-6.215-.033-.198-.004-.38-.47-.739-.94ZM25.812 10.428l.051.889h-6.76l-.079-.89h6.788ZM19.22 17.56h6.575v.989c-2.105 0-4.149.022-6.19-.033-.237-.006-.462-.453-.69-.696l.305-.26ZM25.845 22.047h-6.757v-.903H25.8l.041.903h.003ZM18.977 25.349c.24-.219.475-.62.72-.628 1.815-.052 3.635-.04 5.452-.002.222.004.44.278.658.426-.193.173-.382.49-.578.494-2.015.037-4.032.022-6.046.022l-.206-.313ZM12.875 6.933v7.969h-6.64V6.933h6.64Zm-2.091 6.485c.109-.095.218-.187.325-.282-1.665-.348-1.25-1.611-.98-2.264.33-.796 1.307-1.325 2.188-2.14H6.875c1.437 1.366 3.553 2.42 1.276 4.684h2.63l.003.002ZM6.254 17.573c2.05 0 4.1-.02 6.147.031.206.004.402.44.603.675-.063.089-.13.177-.193.268-2.05 0-4.1.02-6.148-.031-.205-.006-.4-.445-.6-.681l.19-.26v-.002ZM6.23 22.04v-.81c.086-.04.145-.092.207-.094 1.92-.01 3.84.004 5.758-.031.719-.012.803.31.62.934H6.229ZM12.794 24.758c.23.638.111.938-.597.926-1.78-.03-3.562-.027-5.342-.014-.688.006-.809-.307-.601-.912h6.54Z" fill="#FDBA74"/></svg>