<svg width="32" height="32" fill="none" xmlns="http://www.w3.org/2000/svg"><path d="M21.534 9.309c-.02.348-.041.558-.041.766-.002 4.181.012 8.363-.016 12.545-.005.608.211.835.766.932.832.147 1.765.16 2.457.566 1.268.742 2.587.43 3.885.569.268.028.5.395.748.607-.25.211-.476.465-.757.618-.164.089-.415.022-.627.022-8.018 0-16.038.002-24.057-.003-.507 0-1.208.155-1.225-.617-.017-.775.672-.646 1.19-.653.394-.004.788 0 1.292 0 .073-.758.146-1.482.214-2.208.184-1.95.507-3.897.512-5.847.005-2.002-.3-4.005-.474-6.007-.071-.817-.103-1.643-.26-2.444-.069-.346-.421-.63-.623-.958-.16-.26-.29-.54-.432-.812.281-.136.572-.403.843-.384.766.054 1.367.724 1.465 1.636.232 2.156.452 4.316.6 6.48.055.784.26 1.09 1.111 1.054a78.994 78.994 0 0 1 5.556-.006c.375.011.949.294 1.052.585.121.341-.173.83-.287 1.255-.077.284-.237.577-.215.853.17 2.056.37 4.11.585 6.162.022.217.192.58.324.594.396.043.818-.008 1.206-.111.256-.067.451-.36.707-.426.869-.226 1.75-.417 2.633-.582.416-.078.56-.262.559-.688-.011-4.288-.015-8.574.006-12.863.003-.564-.256-.651-.724-.648-1.642.013-3.283.005-4.922-.005-.53-.003-.865-.267-.863-.818.001-.542.318-.815.855-.83.238-.006.476-.01.715-.01 3.784-.008 7.569-.015 11.353-.021h.318c.567 0 1.015.186 1.03.83.012.648-.417.859-.995.86l-4.447.005h-1.022l.005.002ZM7.159 17.205 6.47 24.58h7.052c-.213-2.367-.41-4.656-.64-6.941-.016-.157-.276-.413-.426-.416-1.74-.03-3.48-.02-5.297-.02l-.001.002Z" fill="#FDBA74"/></svg>